<?xml version="1.0" standalone="no"?>
<!DOCTYPE svg PUBLIC "-//W3C//DTD SVG 20010904//EN"
 "http://www.w3.org/TR/2001/REC-SVG-20010904/DTD/svg10.dtd">
<svg version="1.0" xmlns="http://www.w3.org/2000/svg"
 width="512.000000pt" height="512.000000pt" viewBox="0 0 512.000000 512.000000"
 preserveAspectRatio="xMidYMid meet">

<g transform="translate(0.000000,512.000000) scale(0.100000,-0.100000)"
fill="#000000" stroke="none">
<path d="M4780 4750 c0 -5 5 -10 10 -10 6 0 10 5 10 10 0 6 -4 10 -10 10 -5 0
-10 -4 -10 -10z"/>
<path d="M4815 4720 c3 -5 8 -10 11 -10 2 0 4 5 4 10 0 6 -5 10 -11 10 -5 0
-7 -4 -4 -10z"/>
<path d="M4847 4684 c-11 -12 -8 -22 13 -42 11 -10 22 -34 26 -53 4 -26 3 -30
-5 -19 -22 31 -11 -11 14 -54 16 -28 27 -63 30 -102 3 -41 9 -62 22 -72 12 -8
14 -15 7 -20 -14 -9 -33 -172 -39 -342 -9 -220 -17 -251 -58 -227 -44 26 -59
48 -53 78 3 16 1 29 -4 29 -5 0 -13 18 -16 40 -4 23 -12 40 -20 40 -7 0 -18
17 -24 38 -6 20 -19 53 -30 72 -10 19 -28 53 -38 75 -11 22 -27 46 -36 54 -9
7 -16 18 -16 23 0 17 -80 117 -142 178 -40 38 -91 74 -138 98 l-75 37 -645 0
-645 0 -58 -29 c-76 -37 -154 -116 -195 -196 -34 -69 -39 -103 -58 -440 -8
-132 -22 -125 -23 11 0 64 -17 122 -67 236 -8 17 -14 38 -14 46 0 8 -7 21 -16
28 -9 7 -20 22 -24 34 -17 44 -132 175 -196 223 -130 97 -87 92 -792 92 -601
0 -618 -1 -672 -21 -107 -40 -198 -132 -239 -240 -20 -52 -21 -71 -21 -669 0
-472 3 -623 13 -650 35 -97 113 -201 200 -267 34 -26 64 -50 67 -53 11 -12
139 -70 198 -90 34 -12 86 -26 115 -31 29 -4 75 -13 102 -19 80 -16 769 -25
835 -11 63 14 227 41 253 42 9 0 17 4 17 8 0 4 21 18 46 30 25 13 49 32 53 43
4 10 18 25 31 31 14 7 34 30 45 52 11 22 23 42 26 45 10 9 29 72 24 81 -3 4 4
25 16 45 13 24 19 47 15 64 -6 31 2 70 14 70 5 0 12 -14 15 -32 19 -83 100
-190 212 -279 35 -27 66 -49 69 -49 4 0 15 -6 23 -14 9 -7 59 -33 111 -56 86
-39 169 -60 298 -76 56 -8 58 -34 2 -34 -22 0 -40 -4 -40 -10 0 -5 24 -10 53
-10 37 0 48 -3 37 -10 -10 -7 9 -10 62 -10 42 0 79 -4 82 -8 8 -14 254 -24
277 -12 25 14 389 22 389 9 0 -5 7 -9 15 -9 8 0 15 -6 15 -14 0 -20 25 -37 44
-30 26 10 18 32 -14 39 -17 4 -30 13 -30 21 0 8 -6 14 -12 13 -19 -4 -88 28
-88 40 0 12 2 12 70 17 165 13 325 60 341 101 5 14 17 23 29 23 35 0 58 18 70
54 7 21 20 38 33 42 12 3 41 24 64 47 31 29 44 37 48 26 23 -64 35 -125 35
-188 0 -40 7 -101 16 -135 13 -50 15 -101 12 -281 -3 -143 -8 -228 -16 -242
-7 -12 -13 -61 -13 -110 -1 -55 -7 -96 -15 -110 -8 -12 -14 -40 -14 -63 0 -22
-4 -40 -10 -40 -5 0 -10 19 -10 43 0 28 -6 50 -19 63 -10 11 -21 36 -25 56 -4
24 -13 38 -26 41 -16 4 -20 14 -20 51 0 31 -6 52 -18 64 -10 10 -26 39 -36 65
-10 26 -24 54 -31 61 -8 8 -23 31 -35 53 -11 22 -28 48 -38 59 -9 11 -24 33
-32 49 -14 26 -73 71 -127 95 -13 5 -23 13 -23 18 0 10 -29 12 -31 3 -8 -37
-5 -52 11 -48 9 2 27 -1 40 -8 22 -12 22 -12 3 -26 -11 -8 -25 -24 -32 -37
-11 -20 -10 -26 9 -42 16 -14 20 -25 14 -42 -12 -37 -12 -42 -14 -510 0 -279
-4 -450 -11 -453 -5 -4 -7 -11 -4 -16 4 -5 2 -9 -3 -9 -5 0 -9 -33 -8 -74 1
-69 -1 -76 -26 -99 -16 -15 -28 -34 -28 -45 0 -12 -13 -23 -35 -32 -33 -13
-48 -31 -74 -87 -7 -15 -26 -25 -68 -34 -32 -7 -61 -17 -65 -23 -4 -5 -85 -9
-202 -9 -108 0 -196 -2 -196 -6 0 -6 -687 -5 -730 2 -14 2 -34 0 -45 -6 -13
-7 -20 -6 -23 2 -2 6 -7 11 -12 11 -4 0 -2 -17 5 -37 11 -33 17 -38 49 -41 23
-2 36 -8 36 -18 0 -20 -49 -18 -72 3 -17 15 -18 15 -18 -8 0 -26 49 -72 117
-110 21 -12 49 -33 63 -45 14 -12 39 -26 55 -30 17 -4 50 -18 74 -31 24 -12
56 -23 70 -23 40 0 71 -11 71 -24 0 -14 38 -49 63 -59 72 -27 -79 -69 -245
-67 -42 1 -104 -6 -139 -15 -45 -12 -83 -15 -138 -10 -42 4 -128 7 -191 8
-128 3 -270 16 -270 26 0 3 -70 5 -156 3 -112 -3 -159 0 -164 8 -11 18 -582
20 -587 3 -4 -10 19 -13 93 -13 53 0 95 -2 92 -5 -3 -3 -76 -10 -164 -15 -199
-12 -320 -27 -347 -42 -25 -13 -146 -12 -250 3 -69 9 -117 4 -117 -12 0 -5 8
-9 18 -9 16 -1 16 -1 -1 -11 -20 -12 -52 -4 -43 10 10 15 -22 34 -46 27 -30
-7 -99 4 -92 15 8 13 -20 11 -34 -3 -8 -8 -15 -8 -27 2 -22 18 -19 29 6 23 15
-4 20 -2 18 6 -5 13 -10 14 -47 4 -16 -4 -34 2 -52 16 -51 37 -82 23 -36 -16
96 -84 300 -177 441 -202 32 -6 64 -16 69 -21 7 -7 554 -10 1590 -10 1325 0
1587 2 1621 14 22 8 76 22 120 31 44 9 107 30 141 46 33 16 64 29 68 29 9 0
167 103 203 133 92 74 176 178 270 332 42 69 103 240 103 290 0 17 7 40 15 51
12 16 14 227 15 1612 0 1197 -3 1599 -12 1615 -6 12 -17 49 -24 82 -21 102
-30 127 -73 217 -58 123 -147 249 -164 232z m85 -186 c-9 -9 -12 -7 -12 12 0
19 3 21 12 12 9 -9 9 -15 0 -24z m-3312 -376 c0 -11 -9 -29 -20 -42 -13 -15
-21 -39 -22 -69 -3 -86 4 -206 13 -223 6 -11 5 -27 -3 -43 -10 -21 -9 -29 5
-43 15 -15 41 -16 238 -13 256 3 266 1 218 -58 -61 -77 -82 -86 -194 -83 -55
1 -117 5 -139 8 -89 14 -117 11 -136 -13 -16 -21 -18 -40 -14 -201 5 -203 3
-211 -67 -266 -69 -55 -71 -50 -68 212 3 277 12 261 -148 256 -155 -5 -210
-12 -243 -29 -54 -28 -58 -23 -62 66 -2 44 1 87 5 95 7 11 47 14 215 14 149 0
211 3 220 12 9 9 12 73 12 225 l0 213 95 0 c86 0 95 -2 95 -18z m2530 -447
c10 -13 9 -19 -6 -38 -11 -12 -23 -25 -29 -29 -6 -5 -5 -8 3 -8 20 0 13 -18
-10 -26 -13 -4 -25 -11 -28 -15 -4 -5 -201 -9 -439 -9 -310 -1 -440 -4 -455
-12 -11 -7 -31 -11 -43 -9 -13 1 -23 -2 -23 -8 0 -17 -42 -25 -51 -10 -10 16
-12 139 -3 163 5 14 62 16 539 16 464 0 534 -2 545 -15z m-1503 -657 c-3 -8
-6 -5 -6 6 -1 11 2 17 5 13 3 -3 4 -12 1 -19z m1863 -879 c0 -11 -4 -17 -10
-14 -5 3 -10 13 -10 21 0 8 5 14 10 14 6 0 10 -9 10 -21z"/>
<path d="M2448 2160 c2 -17 -1 -36 -7 -44 -8 -10 -8 -21 -1 -40 14 -38 13
-156 -2 -156 -8 0 -9 -49 -4 -191 7 -203 -1 -449 -15 -449 -5 0 -9 90 -9 200
0 133 -4 200 -10 200 -7 0 -10 -38 -9 -107 1 -60 -2 -158 -6 -218 -6 -96 -5
-112 9 -124 14 -12 16 -10 16 13 0 16 4 25 10 21 6 -3 10 -18 10 -33 0 -21 2
-24 10 -12 8 13 10 12 10 -2 0 -10 -4 -18 -10 -18 -6 0 -10 -33 -10 -80 0
-107 -19 -105 -22 3 -1 45 -3 63 -5 40 -2 -24 -8 -43 -12 -43 -5 0 -12 -32
-15 -70 -8 -81 -32 -170 -46 -170 -6 0 -10 -8 -10 -17 -1 -33 -54 -98 -88
-108 -19 -5 -31 -14 -28 -21 6 -15 -42 -38 -104 -53 -51 -12 -298 -32 -467
-38 -62 -2 -113 -8 -113 -13 0 -6 -11 -5 -26 0 -29 11 -177 13 -248 4 -108
-15 -27 -23 262 -25 521 -5 587 -4 593 4 3 4 16 4 28 -1 29 -11 111 26 111 50
0 10 14 22 35 29 19 7 37 21 41 31 3 10 21 30 39 44 19 14 36 35 38 47 3 15 5
12 6 -10 0 -18 -3 -33 -8 -33 -5 0 -13 -9 -16 -21 -8 -24 -94 -109 -111 -109
-7 0 -14 -7 -17 -14 -3 -8 -22 -18 -42 -22 -19 -3 -38 -10 -40 -15 -3 -4 -124
-6 -268 -3 -144 3 -417 1 -607 -3 -190 -5 -369 -5 -399 0 -29 4 -56 5 -59 2
-9 -8 46 -50 91 -71 20 -9 37 -21 37 -26 0 -4 12 -8 28 -8 16 0 32 -8 39 -20
7 -10 32 -24 55 -30 24 -6 61 -19 83 -30 30 -13 43 -15 54 -7 10 9 16 7 27 -7
18 -25 204 -59 242 -45 15 6 28 6 31 0 3 -5 41 -12 84 -16 59 -6 77 -11 77
-23 0 -13 23 -14 197 -8 109 4 200 11 203 15 8 13 240 23 240 10 0 -5 5 -7 10
-4 6 3 10 16 10 29 0 24 28 56 48 56 7 0 12 6 12 14 0 7 14 16 31 20 27 5 48
23 107 91 38 43 61 96 56 124 -4 17 0 38 9 52 8 14 17 62 21 110 8 121 15 149
36 149 15 0 18 15 23 116 6 115 6 117 -18 136 -25 19 -25 21 -25 188 0 93 -5
202 -10 243 -6 41 -15 112 -19 158 -9 84 -55 237 -79 261 -6 6 -12 19 -12 28
0 17 -37 82 -54 92 -19 13 -23 9 -18 -22z m229 -1017 c-3 -10 -5 -4 -5 12 0
17 2 24 5 18 2 -7 2 -21 0 -30z m-228 -220 c-14 -53 -34 -70 -25 -22 4 19 12
54 19 79 11 41 12 43 15 16 2 -16 -2 -49 -9 -73z"/>
<path d="M1908 1832 c-160 -154 -284 -284 -295 -311 -13 -29 -12 -35 2 -51 9
-10 28 -20 43 -23 45 -9 124 -58 118 -73 -3 -8 -1 -14 4 -14 5 0 12 17 15 38
4 20 15 49 26 64 10 15 19 34 19 43 0 8 5 15 11 15 15 0 107 103 146 163 19
31 33 65 33 84 0 27 -6 36 -43 58 -50 29 -56 29 -79 7z"/>
<path d="M4161 1783 c-5 -11 -11 -51 -12 -91 -2 -48 -8 -73 -17 -77 -7 -2
-247 -5 -532 -5 -340 0 -521 -4 -525 -11 -10 -16 13 -36 48 -42 18 -3 55 -9
82 -14 40 -7 868 -10 964 -4 37 2 71 45 70 89 0 45 -40 164 -56 169 -6 2 -16
-4 -22 -14z"/>
<path d="M2677 1600 c-6 -104 -1 -160 14 -160 10 0 9 234 -1 250 -4 6 -10 -34
-13 -90z"/>
<path d="M1500 1413 c-21 -4 -180 -155 -286 -273 -34 -37 -34 -38 -19 -73 16
-39 49 -67 78 -67 17 0 95 37 107 51 3 3 12 10 22 15 9 5 50 41 91 80 41 40
83 74 93 77 10 3 31 8 47 11 15 4 27 11 27 16 0 6 -18 30 -39 53 -24 26 -42
57 -46 80 -8 39 -13 41 -75 30z"/>
<path d="M4160 1369 c-7 -12 -9 -37 -5 -60 5 -27 3 -39 -5 -39 -7 0 -10 -11
-8 -27 l3 -28 -535 -5 c-294 -3 -536 -7 -537 -8 -9 -7 0 -31 15 -43 55 -46
117 -52 617 -56 226 -2 417 -4 425 -5 38 -3 59 4 65 21 3 10 13 18 23 17 10
-1 20 11 28 32 10 33 4 77 -21 137 -4 11 -14 35 -21 53 -15 37 -29 41 -44 11z"/>
<path d="M1880 1244 c0 -4 8 -12 17 -19 16 -12 13 -17 -30 -61 -26 -26 -47
-54 -47 -61 0 -8 14 -34 30 -59 26 -36 36 -44 62 -44 60 0 118 63 118 129 0
20 -68 81 -90 81 -11 0 -20 4 -20 10 0 5 -9 14 -20 20 -11 6 -20 8 -20 4z"/>
<path d="M2752 761 c2 -7 7 -12 11 -12 12 1 9 15 -3 20 -7 2 -11 -2 -8 -8z"/>
<path d="M2790 700 c0 -5 5 -10 10 -10 6 0 10 5 10 10 0 6 -4 10 -10 10 -5 0
-10 -4 -10 -10z"/>
<path d="M360 330 c0 -5 5 -10 11 -10 5 0 7 5 4 10 -3 6 -8 10 -11 10 -2 0 -4
-4 -4 -10z"/>
</g>
</svg>
